# xmcd CD database file
#
# Track frame offsets:
#	150
#	23111
#	41402
#	57810
#	81437
#	107577
#	133523
#	149763
#	169876
#	194498
#	216802
#	229703
#
# Disc length: 3363 seconds
#
# Revision: 0
# Processed by: cddbd v1.5.2PL0 Copyright (c) Steve Scherf et al.
# Submitted via: CDex 1.51
#
DISCID=aa0d210c
DTITLE=Acoustic Avenue - Walkin' In The Park
DYEAR=2006
DGENRE=Jazz
TTITLE0=Walkin' In The Park
TTITLE1=Fine Brown Frame
TTITLE2=Perhaps, Perhaps, Perhaps
TTITLE3=Georgia On My Mind
TTITLE4=Can't Take My Eyes Off You
TTITLE5=Another Star
TTITLE6=Fly Me To The Moon
TTITLE7=Brazil
TTITLE8=Night And Day
TTITLE9=Besame Mucho
TTITLE10=One Note Samba
TTITLE11=Me And Mrs. Jones
EXTD=YEAR: 2006
EXTT0=
EXTT1=
EXTT2=
EXTT3=
EXTT4=
EXTT5=
EXTT6=
EXTT7=
EXTT8=
EXTT9=
EXTT10=
EXTT11=
PLAYORDER=
